<?xml version="1.0" standalone="no"?>
<!DOCTYPE svg PUBLIC "-//W3C//DTD SVG 20010904//EN"
 "http://www.w3.org/TR/2001/REC-SVG-20010904/DTD/svg10.dtd">
<svg version="1.0" xmlns="http://www.w3.org/2000/svg"
 width="277.000000pt" height="277.000000pt" viewBox="0 0 277.000000 277.000000"
 preserveAspectRatio="xMidYMid meet">
<metadata>
Created by potrace 1.11, written by Peter Selinger 2001-2013
</metadata>
<g transform="translate(0.000000,277.000000) scale(0.100000,-0.100000)"
fill="#000000" stroke="none">
<path d="M950 1974 c-90 -19 -198 -76 -261 -137 -115 -113 -182 -256 -228
-492 -1 -3 -1 -14 -1 -25 0 -19 -7 -20 -231 -20 l-231 0 28 -47 c58 -100 143
-190 209 -222 64 -31 99 -32 154 -5 41 21 55 23 90 15 110 -24 275 -3 420 55
82 32 219 105 293 155 31 22 60 39 63 39 3 0 30 -22 58 -48 84 -78 163 -138
214 -163 55 -26 180 -35 251 -17 39 10 46 8 80 -15 20 -14 62 -36 93 -47 47
-18 63 -32 105 -86 45 -61 120 -122 151 -125 31 -3 40 -3 75 4 44 9 91 59 162
173 98 159 111 174 200 241 49 38 97 72 106 77 15 8 15 15 4 62 -32 137 -104
305 -159 366 -67 77 -148 98 -223 59 -46 -24 -121 -102 -197 -204 -31 -43 -71
-85 -87 -93 -36 -19 -78 -11 -116 20 -47 40 -89 57 -128 52 -34 -5 -114 -50
-114 -66 0 -10 -39 -20 -44 -11 -3 4 -7 18 -10 32 -8 46 -38 124 -72 189 -68
130 -183 230 -313 271 -84 27 -248 33 -341 13z"/>
</g>
</svg>
