<svg id="cloudy" xmlns="http://www.w3.org/2000/svg" width="126.157" height="110.521" viewBox="0 0 126.157 110.521">
  <path id="Path_113" data-name="Path 113" d="M28.452,74.6A21.819,21.819,0,0,1,70.66,68.279a14.736,14.736,0,0,1-.181,29.472H28.856a11.581,11.581,0,0,1-.4-23.155Zm0,0" transform="translate(-13.017 -40.782)" fill="#f0f5f7"/>
  <path id="Path_114" data-name="Path 114" d="M129.295,83.017a14.74,14.74,0,0,1-8.45,13.332,14.743,14.743,0,0,0-13.153-21.021,21.825,21.825,0,0,0-31.931-10.89,21.822,21.822,0,0,1,38.975,3.844,14.738,14.738,0,0,1,14.559,14.735Zm0,0" transform="translate(-57.094 -40.786)" fill="#dde9ed"/>
  <path id="Path_115" data-name="Path 115" d="M265.578,178.638a24.553,24.553,0,0,0-47.5-7.109,16.583,16.583,0,0,0,.2,33.165h46.839a13.032,13.032,0,0,0,.455-26.056Zm0,0" transform="translate(-152 -117.255)" fill="#c4e1e8"/>
  <path id="Path_116" data-name="Path 116" d="M344.468,191.66a13.036,13.036,0,0,1-13.035,13.035h-1.01a13.034,13.034,0,0,0-11.1-19.059,24.572,24.572,0,0,0-29.634-22.507,24.548,24.548,0,0,1,42.2,15.511A13.029,13.029,0,0,1,344.468,191.66Zm0,0" transform="translate(-218.311 -117.255)" fill="#a4d5dd"/>
  <path id="Path_117" data-name="Path 117" d="M249.91,103.847A29.221,29.221,0,1,1,220.69,74.625,29.22,29.22,0,0,1,249.91,103.847Zm0,0" transform="translate(-144.29 -56.237)" fill="#f6cb43"/>
  <path id="Path_118" data-name="Path 118" d="M220.694,134.828A29.224,29.224,0,0,1,214.9,76.961,29.244,29.244,0,0,0,249.339,111.4a29.232,29.232,0,0,1-28.645,23.427Zm0,0" transform="translate(-144.293 -57.998)" fill="#fab03c"/>
  <g id="Group_67" data-name="Group 67" transform="translate(51.643 0)">
    <path id="Path_119" data-name="Path 119" d="M470.479,189.3h-6.294a1.9,1.9,0,0,1,0-3.808h6.294a1.9,1.9,0,0,1,0,3.808Zm0,0" transform="translate(-400.018 -139.787)" fill="#f8e98e"/>
    <path id="Path_120" data-name="Path 120" d="M442.758,99.7a1.9,1.9,0,0,1-.953-3.554L447.255,93a1.9,1.9,0,1,1,1.9,3.3l-5.451,3.147A1.891,1.891,0,0,1,442.758,99.7Zm0,0" transform="translate(-383.869 -69.892)" fill="#f8e98e"/>
    <path id="Path_121" data-name="Path 121" d="M384.21,34.108a1.9,1.9,0,0,1-1.647-2.856L385.71,25.8a1.9,1.9,0,1,1,3.3,1.9l-3.146,5.451a1.9,1.9,0,0,1-1.651.952Zm0,0" transform="translate(-339.75 -18.726)" fill="#f8e98e"/>
    <path id="Path_122" data-name="Path 122" d="M304.24,10.1a1.9,1.9,0,0,1-1.9-1.9V1.9a1.9,1.9,0,1,1,3.807,0V8.2A1.9,1.9,0,0,1,304.24,10.1Zm0,0" transform="translate(-279.483 0)" fill="#f8e98e"/>
    <path id="Path_123" data-name="Path 123" d="M214.642,34.109a1.9,1.9,0,0,1-1.65-.952l-3.147-5.451a1.9,1.9,0,0,1,3.3-1.9l3.146,5.451a1.9,1.9,0,0,1-1.647,2.856Zm0,0" transform="translate(-209.589 -18.727)" fill="#f8e98e"/>
  </g>
  <path id="Path_124" data-name="Path 124" d="M63.879,178.638a24.553,24.553,0,0,0-47.5-7.109,16.583,16.583,0,0,0,.2,33.165H63.424a13.032,13.032,0,0,0,.455-26.056Zm0,0" transform="translate(0 -117.255)" fill="#c4e1e8"/>
  <path id="Path_125" data-name="Path 125" d="M142.769,191.66a13.036,13.036,0,0,1-13.035,13.035h-1.01a13.034,13.034,0,0,0-11.1-19.059,24.572,24.572,0,0,0-29.633-22.507,24.549,24.549,0,0,1,42.2,15.511,13.029,13.029,0,0,1,12.578,13.021Zm0,0" transform="translate(-66.311 -117.255)" fill="#a4d5dd"/>
  <path id="Path_126" data-name="Path 126" d="M223.2,272.314a24.553,24.553,0,0,0-47.5-7.109,16.583,16.583,0,0,0,.2,33.165h46.839a13.032,13.032,0,0,0,.454-26.056Zm0,0" transform="translate(-120.063 -187.849)" fill="#f0f5f7"/>
  <path id="Path_127" data-name="Path 127" d="M302.086,285.336a13.036,13.036,0,0,1-13.035,13.035h-1.01a13.034,13.034,0,0,0-11.1-19.059A24.573,24.573,0,0,0,247.309,256.8a24.549,24.549,0,0,1,42.2,15.511A13.029,13.029,0,0,1,302.086,285.336Zm0,0" transform="translate(-186.372 -187.85)" fill="#dde9ed"/>
  <path id="Path_128" data-name="Path 128" d="M383.315,316.125a1.9,1.9,0,0,1-1.849-1.459,16.5,16.5,0,0,0-.9-2.685,1.9,1.9,0,1,1,3.495-1.512,20.359,20.359,0,0,1,1.1,3.307,1.9,1.9,0,0,1-1.406,2.3,1.925,1.925,0,0,1-.447.053Zm0,0" transform="translate(-286.679 -233.104)" fill="#f0f5f7"/>
  <path id="Path_129" data-name="Path 129" d="M326.668,273.476a1.9,1.9,0,0,1-1.374-.586,16.485,16.485,0,0,0-11.993-5.122,1.9,1.9,0,1,1,0-3.807,20.26,20.26,0,0,1,14.74,6.294,1.9,1.9,0,0,1-1.374,3.221Zm0,0" transform="translate(-234.67 -198.921)" fill="#f0f5f7"/>
  <path id="Path_130" data-name="Path 130" d="M51.372,322.553a17.554,17.554,0,0,1,33.957-5.082,11.856,11.856,0,0,1-.145,23.71H51.7a9.317,9.317,0,0,1-.325-18.628Zm0,0" transform="translate(-31.937 -230.661)" fill="#f0f5f7"/>
  <path id="Path_131" data-name="Path 131" d="M143.905,329.327a11.858,11.858,0,0,1-11.693,11.854,11.854,11.854,0,0,0-8.588-19.872,17.564,17.564,0,0,0-19.057-11.2,17.552,17.552,0,0,1,27.626,7.362A11.854,11.854,0,0,1,143.9,329.327Zm0,0" transform="translate(-78.801 -230.663)" fill="#dde9ed"/>
</svg>
