<svg id="earth-globe" xmlns="http://www.w3.org/2000/svg" width="115.184" height="115.184" viewBox="0 0 115.184 115.184">
  <circle id="Ellipse_4" data-name="Ellipse 4" cx="57.5" cy="57.5" r="57.5" fill="#87dcff"/>
  <path id="Path_107" data-name="Path 107" d="M145.737,1.783l-2.378,7.408a5.573,5.573,0,0,1-3.833,3.672L133.562,14.5a5.575,5.575,0,0,1-1.474.2h-8.925a1.858,1.858,0,0,0-1.841,1.612L120.3,23.985l-5.7.3a1.858,1.858,0,0,0-1.759,1.781l-.2,4.954a1.858,1.858,0,0,0,2.011,1.926l3.8-.317a3.344,3.344,0,0,0,2.439-1.383l3.512-4.9,7.512-.268a2.242,2.242,0,0,1,2.159,3.058c-1.309,3.362-1.311,3.65-1.311,3.945a1.858,1.858,0,0,0,3.688.316c.127-.428.694-1.912,1.437-3.8a1.046,1.046,0,0,1,1.845-.2l.48.727a3.715,3.715,0,0,0,4.094,1.532l3.317-.921a3.007,3.007,0,0,0,2.01-1.837l.636-1.688a3.716,3.716,0,0,1,2.726-2.328l2.144-.443a2.711,2.711,0,0,1,3.26,2.049,2.594,2.594,0,0,1-2.258,3.03l-5.17.139a1.974,1.974,0,0,0-1.921,1.927l-.012.495a1.034,1.034,0,0,0,.564.946l2.973,1.517a2.111,2.111,0,0,1,.786,3.067h0a2.11,2.11,0,0,1-1.745.924H135.936a3.269,3.269,0,0,1-1.2-.228l-13.157-5.183a2.726,2.726,0,0,0-2.849.534l-12.46,11.516a3.716,3.716,0,0,0-1.086,3.617l2.533,10.292a3.716,3.716,0,0,0,3.408,2.822l14.038.755a5.574,5.574,0,0,1,5.251,5.054l1.065,11.56a7.258,7.258,0,0,0,.683,2.482c1.183,2.468,3.941,8.077,5.474,10.016,1.974,2.5,6.837,2.6,8.476,1.1l11.414-9.34a5.574,5.574,0,0,0,1.763-3.317l1.337-9.172,9.063-9.988a1.855,1.855,0,0,0-.637-2.948l-.162.109a4.916,4.916,0,0,1-2.3.813c-.145.013-.29.02-.435.02a4.877,4.877,0,0,1-4.144-2.293l-6.92-10.987a1.859,1.859,0,1,1,3.146-1.981l6.92,10.989a1.179,1.179,0,0,0,1.108.552,1.22,1.22,0,0,0,.559-.2l9.353-5.126a1.792,1.792,0,0,0,.54-2.687h0a1.792,1.792,0,0,0-1.606-.664l-1.965.226a1.86,1.86,0,0,1-1.452-.461l-5.883-5.262a1.858,1.858,0,0,1,2.478-2.768l5.261,4.706,3.2-.368a1.845,1.845,0,0,1,1.713.749l.615.842,3.116-.374A3.715,3.715,0,0,1,185.9,45.87L192.2,57.5a3.714,3.714,0,0,0,2.136,1.771l2.263.8c.007-.366.028-.728.028-1.1A57.591,57.591,0,0,0,145.737,1.783Zm24.058,31.791a1.854,1.854,0,0,1-2.578-.5l-3.87-5.728a1.857,1.857,0,0,1,3.077-2.079L170.294,31A1.855,1.855,0,0,1,169.795,33.574Z" transform="translate(-81.439 -1.382)" fill="#bee86e"/>
  <path id="Path_108" data-name="Path 108" d="M76.479,125.7A57.593,57.593,0,0,1,27.422,37.936a57.592,57.592,0,1,0,79.228,79.227A57.311,57.311,0,0,1,76.479,125.7Z" transform="translate(0 -29.402)" fill="#00c3ff"/>
  <g id="Group_66" data-name="Group 66" transform="translate(39.998 1.163)">
    <path id="Path_109" data-name="Path 109" d="M361.081,358.426a1.858,1.858,0,0,1-1.42-3.053l4.877-5.806a1.858,1.858,0,1,1,2.845,2.391l-4.877,5.806A1.855,1.855,0,0,1,361.081,358.426Z" transform="translate(-318.409 -271.576)" fill="#bee86e"/>
    <path id="Path_110" data-name="Path 110" d="M179.544,6.233l-1.653,4.925a1.858,1.858,0,0,0,3.523,1.183l2.406-7.17C182.373,5.466,180.951,5.831,179.544,6.233Z" transform="translate(-177.794 -5.171)" fill="#bee86e"/>
  </g>
  <path id="Path_111" data-name="Path 111" d="M10.421,304.923l1.607-14.6a3.715,3.715,0,0,0-1.113-3.088L1,277.96A57.248,57.248,0,0,0,10.421,304.923Z" transform="translate(-0.776 -215.428)" fill="#afd755"/>
  <path id="Path_112" data-name="Path 112" d="M233.6,0a58.2,58.2,0,0,0-6.165.333l-.193,4.359a2.787,2.787,0,1,0,5.287,1.763L234.668.027C234.311.02,233.957,0,233.6,0Z" transform="translate(-176.006)" fill="#bee86e"/>
</svg>
