<svg id="edit" xmlns="http://www.w3.org/2000/svg" width="27.067" height="27.067" viewBox="0 0 27.067 27.067">
  <g id="Group_29" data-name="Group 29" transform="translate(0 1.933)">
    <g id="Group_28" data-name="Group 28">
      <path id="Path_101" data-name="Path 101" d="M22.233,45.737a.967.967,0,0,0-.967.967V56.37a.967.967,0,0,1-.967.967H2.9a.967.967,0,0,1-.967-.967V37.037A.967.967,0,0,1,2.9,36.07H14.5a.967.967,0,1,0,0-1.933H2.9a2.9,2.9,0,0,0-2.9,2.9V56.37a2.9,2.9,0,0,0,2.9,2.9H20.3a2.9,2.9,0,0,0,2.9-2.9V46.7A.967.967,0,0,0,22.233,45.737Z" transform="translate(0 -34.137)" fill="#d1dbff"/>
    </g>
  </g>
  <g id="Group_31" data-name="Group 31" transform="translate(5.8)">
    <g id="Group_30" data-name="Group 30">
      <path id="Path_102" data-name="Path 102" d="M122.591,1.088a3.7,3.7,0,0,0-5.234,0L104.625,13.82a.977.977,0,0,0-.233.378L102.458,20a.967.967,0,0,0,.916,1.272.982.982,0,0,0,.305-.049l5.8-1.933a.967.967,0,0,0,.378-.234L122.591,6.321A3.7,3.7,0,0,0,122.591,1.088Z" transform="translate(-102.409 -0.004)" fill="#d1dbff"/>
    </g>
  </g>
</svg>
