<svg xmlns="http://www.w3.org/2000/svg" width="154.819" height="173.296" viewBox="0 0 154.819 173.296">
  <g id="goal" transform="translate(0)">
    <g id="Group_69" data-name="Group 69" transform="translate(11.219 0)">
      <path id="Path_135" data-name="Path 135" d="M158.892,285.445H138.178a6.126,6.126,0,0,0-6.127,6.127v24.785a6.127,6.127,0,0,0-6.127-6.127H105.209a6.126,6.126,0,0,0-6.127,6.127V332.7a6.127,6.127,0,0,0-6.127-6.127H72.24a6.127,6.127,0,0,0-6.127,6.127v15.211a6.128,6.128,0,0,0-6.128-6.127H39.271a6.126,6.126,0,0,0-6.127,6.127v11.631H165.02V291.571a6.128,6.128,0,0,0-6.128-6.127Zm0,0" transform="translate(-33.144 -188.83)" fill="#a7c7d3"/>
      <path id="Path_136" data-name="Path 136" d="M346.745,99.2a2.587,2.587,0,0,1-2.589-2.587V2.587a2.588,2.588,0,0,1,5.176,0V96.614A2.588,2.588,0,0,1,346.745,99.2Zm0,0" transform="translate(-238.889 0)" fill="#a7c7d3"/>
      <path id="Path_137" data-name="Path 137" d="M66.114,469.648H33.145V458.017a6.127,6.127,0,0,1,6.127-6.127H59.987a6.126,6.126,0,0,1,6.127,6.127Zm0,0" transform="translate(-33.145 -298.939)" fill="#a7c7d3"/>
    </g>
    <path id="Path_138" data-name="Path 138" d="M163.52,439.918H130.551V413.076a6.127,6.127,0,0,1,6.127-6.127h20.715a6.127,6.127,0,0,1,6.127,6.127Zm0,0" transform="translate(-86.363 -269.209)" fill="#89b4c9"/>
    <path id="Path_139" data-name="Path 139" d="M260.926,407.981H227.957V364.8a6.126,6.126,0,0,1,6.127-6.127H254.8a6.126,6.126,0,0,1,6.127,6.127Zm0,0" transform="translate(-150.8 -237.272)" fill="#6c96b3"/>
    <path id="Path_140" data-name="Path 140" d="M358.333,359.539H325.364V291.571a6.127,6.127,0,0,1,6.127-6.127H352.2a6.128,6.128,0,0,1,6.128,6.127Zm0,0" transform="translate(-215.238 -188.83)" fill="#618aaa"/>
    <path id="Path_141" data-name="Path 141" d="M152.232,501.886H2.588a2.587,2.587,0,1,1,0-5.175H152.232a2.587,2.587,0,1,1,0,5.175Zm0,0" transform="translate(0 -328.59)" fill="#2f5066"/>
    <path id="Path_142" data-name="Path 142" d="M351.8,39.781h33.161a1.114,1.114,0,0,0,.736-1.95l-8.614-7.586a1.113,1.113,0,0,1,0-1.673l8.614-7.585a1.115,1.115,0,0,0-.736-1.951H351.8Zm0,0" transform="translate(-232.73 -12.592)" fill="#fdb659"/>
    <path id="Path_143" data-name="Path 143" d="M265.27,109.012l-35.923,19.511c-3.2,1.741-4.081,4.8-5.2,8.742L217,162.53l9.435,3.241,8.072-10.416,6.794-20.542,18.078-10.984a13.231,13.231,0,0,0,5.888-14.816Zm0,0" transform="translate(-143.554 -72.115)" fill="#83d9ff"/>
    <path id="Path_144" data-name="Path 144" d="M265.27,109.012l-4.145,2.252a13.224,13.224,0,0,1-6.112,8.77L238.54,130.042a5.113,5.113,0,0,0-2.2,2.761l-2.352,7.112a26.661,26.661,0,0,1-15.2,16.3L217,162.53l17.507-7.174,6.794-20.542,18.078-10.986a13.231,13.231,0,0,0,5.887-14.816Zm0,0" transform="translate(-143.554 -72.115)" fill="#5fc9ed"/>
    <path id="Path_145" data-name="Path 145" d="M234.511,245.93l10.344,12.227c1.715,2.27,3.206,3.866,2.9,6.363l-2.419,19.559h-6.313l-1.65-16.814a2.808,2.808,0,0,0-1.683-2.3L217,253.105Zm0,0" transform="translate(-143.555 -162.69)" fill="#38627c"/>
    <path id="Path_146" data-name="Path 146" d="M190.866,253.105l-1.009,18.538c-.066,1.538.149,2.577-.452,3.72L177.492,300.43h6.7l17.911-23.8c1.047-1.219,1.169-2.874,1.522-4.4l4.749-26.307Zm0,0" transform="translate(-117.416 -162.69)" fill="#4f7693"/>
    <path id="Path_147" data-name="Path 147" d="M240.238,115l2.938,5.735a5.484,5.484,0,0,1-2.381,7.38l-2.27,1.162a5.483,5.483,0,0,1-7.38-2.381l-2.938-5.735a5.483,5.483,0,0,1,2.381-7.38l2.27-1.162A5.484,5.484,0,0,1,240.238,115Zm0,0" transform="translate(-150.566 -74.102)" fill="#d59973"/>
  </g>
</svg>
