<svg xmlns="http://www.w3.org/2000/svg" width="352.065" height="512" viewBox="0 0 352.065 512">
  <g id="pin" transform="translate(-79.968 0)">
    <path id="Path_99" data-name="Path 99" d="M407.579,87.677C376.506,34.053,321.314,1.292,259.939.04c-2.62-.054-5.257-.054-7.878,0C190.687,1.292,135.5,34.053,104.421,87.677,72.659,142.489,71.79,208.329,102.1,263.8L229.059,496.187c.057.1.114.206.173.308a30.86,30.86,0,0,0,53.538,0c.059-.1.116-.2.173-.308L409.906,263.8c30.3-55.471,29.435-121.311-2.327-176.123ZM256,232a72,72,0,1,1,72-72A72.081,72.081,0,0,1,256,232Z" fill="#d1dbff"/>
  </g>
</svg>
