<svg id="quot-mark-start" xmlns="http://www.w3.org/2000/svg" width="66.312" height="61.627" viewBox="0 0 66.312 61.627">
  <path id="Path_106" data-name="Path 106" d="M28.551,15.05V26.115a2.717,2.717,0,0,1-2.717,2.717c-5.354,0-8.267,5.492-8.671,16.33h8.671a2.718,2.718,0,0,1,2.717,2.717V71.243a2.717,2.717,0,0,1-2.717,2.716H2.717A2.716,2.716,0,0,1,0,71.243V47.879A59.916,59.916,0,0,1,1.554,33.706,34.1,34.1,0,0,1,6.379,22.489,23.551,23.551,0,0,1,14.578,15a23.334,23.334,0,0,1,11.257-2.664A2.717,2.717,0,0,1,28.551,15.05ZM63.595,28.832a2.718,2.718,0,0,0,2.717-2.717V15.05a2.717,2.717,0,0,0-2.717-2.717A22.566,22.566,0,0,0,44.138,22.489a34.119,34.119,0,0,0-4.824,11.218A59.96,59.96,0,0,0,37.761,47.88V71.244a2.717,2.717,0,0,0,2.717,2.716H63.594a2.717,2.717,0,0,0,2.716-2.716V47.879a2.717,2.717,0,0,0-2.716-2.717H55.048C55.445,34.324,58.315,28.832,63.595,28.832Z" transform="translate(0 -12.333)" fill="#91d498"/>
</svg>
