<svg id="quot-mark-end" xmlns="http://www.w3.org/2000/svg" width="66.313" height="61.627" viewBox="0 0 66.313 61.627">
  <path id="Path_106" data-name="Path 106" d="M37.761,71.243V60.178a2.717,2.717,0,0,1,2.717-2.717c5.354,0,8.267-5.492,8.671-16.33H40.478a2.718,2.718,0,0,1-2.717-2.717V15.049a2.717,2.717,0,0,1,2.717-2.716H63.6a2.716,2.716,0,0,1,2.717,2.716V38.413a59.915,59.915,0,0,1-1.554,14.173A34.1,34.1,0,0,1,59.934,63.8a23.551,23.551,0,0,1-8.2,7.492A23.335,23.335,0,0,1,40.477,73.96,2.717,2.717,0,0,1,37.761,71.243ZM2.717,57.461A2.718,2.718,0,0,0,0,60.177V71.243a2.717,2.717,0,0,0,2.717,2.717A23.329,23.329,0,0,0,13.973,71.3a23.556,23.556,0,0,0,8.2-7.492A34.118,34.118,0,0,0,27,52.585a59.959,59.959,0,0,0,1.554-14.172V15.049a2.717,2.717,0,0,0-2.717-2.716H2.718A2.717,2.717,0,0,0,0,15.049V38.413A2.717,2.717,0,0,0,2.718,41.13h8.547C10.867,51.969,8,57.461,2.717,57.461Z" transform="translate(0 -12.333)" fill="#91d498"/>
</svg>
