<svg xmlns="http://www.w3.org/2000/svg" width="512.002" height="488.41" viewBox="0 0 512.002 488.41">
  <g id="star" transform="translate(0 -11.796)">
    <g id="Group_27" data-name="Group 27">
      <path id="Path_100" data-name="Path 100" d="M511.267,197.258a15,15,0,0,0-12.107-10.209L340.437,163.984,269.452,20.157a15,15,0,0,0-26.9,0L171.563,163.984,12.843,187.049a15,15,0,0,0-8.312,25.585L119.379,324.588,92.271,482.671a15,15,0,0,0,21.763,15.812L256,423.845l141.961,74.637a15,15,0,0,0,21.766-15.813L392.611,324.588,507.472,212.633A14.994,14.994,0,0,0,511.267,197.258Z" fill="#d1dbff"/>
    </g>
  </g>
</svg>
