<svg xmlns="http://www.w3.org/2000/svg" width="20.968" height="31.039" viewBox="0 0 20.968 31.039">
  <g id="trash-can" transform="translate(-83.057)">
    <path id="XMLID_1089_" d="M103.988,93.243l-.677-2.029a1,1,0,0,0-.949-.684H84.72a1,1,0,0,0-.949.684l-.677,2.029a.71.71,0,0,0,.673.934h19.548A.71.71,0,0,0,103.988,93.243Z" transform="translate(0 -85.043)" fill="#ffd1d1"/>
    <path id="XMLID_835_" d="M103.145,199.548a1.379,1.379,0,0,0,1.37,1.227h11.744a1.379,1.379,0,0,0,1.37-1.227l2.1-18.858H101.05Z" transform="translate(-16.902 -169.736)" fill="#ffd1d1"/>
    <path id="XMLID_831_" d="M197.709,2.607a.789.789,0,0,1,.788-.788h2.679a.789.789,0,0,1,.788.788V3.67h1.819V2.607A2.61,2.61,0,0,0,201.175,0H198.5a2.61,2.61,0,0,0-2.607,2.607V3.67h1.819Z" transform="translate(-105.993)" fill="#ffd1d1"/>
  </g>
</svg>
