<svg xmlns="http://www.w3.org/2000/svg" width="114.182" height="100.554" viewBox="0 0 114.182 100.554">
  <g id="wave" transform="translate(0 -30.553)">
    <path id="Path_132" data-name="Path 132" d="M69.576,30.553h-.6C35.123,30.553.72,56.964.05,107.824L0,127.384a3.731,3.731,0,0,0,3.723,3.723H37.655c-8.956-14.184-9.663-34.5.2-51.68,4.908-8.5,12.371-15.74,21.446-19.609A44.61,44.61,0,0,1,71.985,56.7l4.22-.009c2.706.1,5.511,1.415,8.316,3.947a13.711,13.711,0,0,1,3.823,7.323c1.117,4.865.893,10.624.72,14.968-.149,4.145-.248,6.652.6,8.489a4.74,4.74,0,0,0,5.535,2.557c5.56-1.217,15.836-13.3,15.911-27.379C111.2,45.6,94.125,30.776,69.576,30.553Z" transform="translate(0 0)" fill="#57deff"/>
    <path id="Path_133" data-name="Path 133" d="M130.434,151.438c.523-9.933,4.431-20.01,12.758-25.592a27.043,27.043,0,0,1,11.691-4.269,9.368,9.368,0,0,1,2.358-.2l8.316-.124-5.039-6.9a13.286,13.286,0,0,0-3.773-.546c-19.289,0-34.981,10.443-44.307,26.609-10.211,17.744-10.637,39.013-2.284,55.378h48.08C139.8,190.257,129.506,169.959,130.434,151.438Z" transform="translate(-81.038 -64.688)" fill="#52c2ff"/>
    <path id="Path_134" data-name="Path 134" d="M256.456,174.032c-25.517,0-42.719-8.911-47.187-24.5a27.232,27.232,0,0,1,.174-15.539c1.9-6.094,6.367-12.239,12.758-12.039,2.706.1,5.511,1.415,8.316,3.947a13.711,13.711,0,0,1,3.823,7.323,13.9,13.9,0,0,0,1.017-5.188,13.633,13.633,0,0,0-9.879-13.106c-6.111-1.608-24.539,1.374-33.088,18.815a44.837,44.837,0,0,0-4.418,17.9c-.839,16.256,5.935,34.16,19.386,44.729h49.1a3.718,3.718,0,0,0,3.723-3.723V177.755A3.718,3.718,0,0,0,256.456,174.032Z" transform="translate(-145.997 -65.265)" fill="#4da6ff"/>
  </g>
</svg>
